<svg width="43" height="32" viewBox="0 0 43 32" fill="none" xmlns="http://www.w3.org/2000/svg">
  <path d="M43 0H0V32H43V0Z" fill="#E80808" />
  <path
    d="M39.8001 3.19995L37.5001 16L39.8001 28.7999H37.5001L35.9001 20.5L34.4001 28.7999H32.1001L34.4001 16L32.1001 3.19995H34.4001L35.9001 11.8L37.5001 3.19995H39.8001Z"
    fill="white"
  />
  <path
    d="M25.9001 6.30005V25.7001C25.9001 26.3001 26.4001 26.9 27.1001 26.9C27.7001 26.9 28.3001 26.4001 28.3001 25.7001V6.30005C28.3001 5.70005 27.8001 5.10005 27.1001 5.10005C26.4001 5.10005 25.9001 5.70005 25.9001 6.30005ZM23.6001 25.7001V6.30005C23.6001 4.40005 25.2001 2.80005 27.1001 2.80005C29.0001 2.80005 30.6001 4.40005 30.6001 6.30005V25.7001C30.6001 27.6 29.0001 29.2001 27.1001 29.2001C25.1001 29.2001 23.6001 27.6 23.6001 25.7001Z"
    fill="white"
  />
  <path d="M22 3.19995L19.8 28.7999H16.5L14.3 3.19995H16.6L18.2 21L19.7 3.19995H22Z" fill="white" />
</svg>
